<?xml version="1.0" encoding="UTF-8"?>
<svg xmlns="http://www.w3.org/2000/svg" viewBox="0 0 96 96" width="96px" height="96px">
<g id="surface134876">
<path style=" stroke:none;fill-rule:nonzero;fill:rgb(94.509804%,76.862746%,5.882353%);fill-opacity:1;" d="M 50.179688 40.957031 L 50.179688 56.238281 L 71.960938 56.238281 C 69.113281 65.5 61.371094 72.128906 50.179688 72.128906 C 36.851562 72.128906 26.046875 61.324219 26.046875 48 C 26.046875 34.675781 36.851562 23.871094 50.179688 23.871094 C 56.171875 23.871094 61.644531 26.066406 65.863281 29.683594 L 77.121094 18.429688 C 70.011719 11.953125 60.554688 8 50.179688 8 C 28.085938 8 10.171875 25.90625 10.171875 48 C 10.171875 70.09375 28.085938 88 50.179688 88 C 83.765625 88 91.175781 56.601562 87.882812 41.007812 Z M 50.179688 40.957031 "/>
</g>
</svg>
