<?xml version="1.0" encoding="UTF-8"?>
<svg xmlns="http://www.w3.org/2000/svg" viewBox="0 0 96 96" width="96px" height="96px">
<g id="surface123637">
<path style=" stroke:none;fill-rule:nonzero;fill:rgb(94.509804%,76.862746%,5.882353%);fill-opacity:1;" d="M 12.75 0 C 5.546875 0 0 5.546875 0 12.75 L 0 83.25 C 0 90.453125 5.546875 96 12.75 96 L 83.25 96 C 90.453125 96 96 90.453125 96 83.25 L 96 12.75 C 96 5.546875 90.453125 0 83.25 0 Z M 12.75 8 L 83.25 8 C 86.046875 8 88 9.953125 88 12.75 L 88 32 L 67.75 32 C 62.703125 27.03125 55.734375 24 48 24 C 40.265625 24 33.296875 27.03125 28.25 32 L 8 32 L 8 12.75 C 8 9.953125 9.953125 8 12.75 8 Z M 69.25 12 C 68.453125 12 68 12.453125 68 13.25 L 68 26.75 C 68 27.546875 68.453125 28 69.25 28 L 82.75 28 C 83.546875 28 84 27.546875 84 26.75 L 84 13.25 C 84 12.453125 83.546875 12 82.75 12 Z M 48 32 C 59.203125 32 68 40.796875 68 52 C 68 63.203125 59.203125 72 48 72 C 36.796875 72 28 63.203125 28 52 C 28 40.796875 36.796875 32 48 32 Z M 48 40 C 46.796875 40 45.578125 40.375 44.375 40.375 C 46.375 41.171875 48 43.59375 48 46 C 48 49.203125 45.203125 52 42 52 C 39.59375 52 37.578125 50.375 36.375 48.375 C 36.375 49.578125 36 50.796875 36 52 C 36 58.796875 41.203125 64 48 64 C 54.796875 64 60 58.796875 60 52 C 60 45.203125 54.796875 40 48 40 Z M 48 40 "/>
</g>
</svg>
